<?xml version="1.0" standalone="no"?>
<!DOCTYPE svg PUBLIC "-//W3C//DTD SVG 20010904//EN"
 "http://www.w3.org/TR/2001/REC-SVG-20010904/DTD/svg10.dtd">
<svg version="1.0" xmlns="http://www.w3.org/2000/svg"
 width="980.000000pt" height="835.000000pt" viewBox="0 0 980.000000 835.000000"
 preserveAspectRatio="xMidYMid meet">
<metadata>
Created by potrace 1.15, written by Peter Selinger 2001-2017
</metadata>
<g transform="translate(0.000000,835.000000) scale(0.100000,-0.100000)"
fill="#000000" stroke="none">
<path d="M4540 8340 c-760 -55 -1456 -244 -2093 -567 -1086 -552 -1884 -1435
-2241 -2482 -238 -696 -269 -1442 -90 -2154 329 -1306 1346 -2406 2749 -2972
142 -57 428 -156 434 -150 2 3 -10 35 -27 72 -17 38 -47 129 -66 203 -82 314
-94 591 -36 867 29 138 63 233 140 388 171 342 450 633 885 921 276 182 597
351 1093 575 350 159 556 260 645 318 80 53 153 127 163 165 15 60 -40 141
-153 223 -166 122 -362 219 -1068 533 -646 287 -911 415 -1192 576 -428 245
-694 482 -780 696 -47 115 -53 231 -16 302 57 110 314 314 787 624 602 394
750 503 792 584 20 38 18 43 -23 89 -74 82 -212 169 -507 320 l-209 107 161
80 162 80 58 -14 c440 -112 731 -342 798 -631 26 -113 1 -195 -87 -288 -69
-73 -136 -120 -349 -244 -215 -126 -402 -250 -497 -330 -93 -79 -128 -146
-120 -226 19 -186 275 -417 767 -692 368 -206 719 -372 1830 -863 582 -258
860 -392 959 -465 236 -174 209 -380 -81 -623 -174 -146 -368 -269 -923 -587
-581 -333 -817 -485 -1037 -666 -300 -248 -422 -471 -423 -769 0 -114 3 -132
31 -211 79 -222 263 -401 573 -558 334 -169 781 -293 1306 -361 l140 -18 105
45 c752 325 1437 862 1911 1498 780 1048 994 2354 583 3558 -315 921 -978
1723 -1887 2284 -194 119 -565 304 -782 390 -479 189 -960 304 -1495 358 -185
19 -712 27 -890 15z"/>
</g>
</svg>
